M48
; DRILL file {KiCad (6.0.9)} date Thu Feb 29 16:10:44 2024
; FORMAT={-:-/ absolute / inch / decimal}
; #@! TF.CreationDate,2024-02-29T16:10:44+01:00
; #@! TF.GenerationSoftware,Kicad,Pcbnew,(6.0.9)
; #@! TF.FileFunction,Plated,1,2,PTH
FMAT,2
INCH
; #@! TA.AperFunction,Plated,PTH,ViaDrill
T1C0.0157
; #@! TA.AperFunction,Plated,PTH,ComponentDrill
T2C0.0394
; #@! TA.AperFunction,Plated,PTH,ComponentDrill
T3C0.1260
%
G90
G05
T1
X2.4961Y-2.0945
X2.811Y-2.2362
X2.8386Y-2.811
X2.8661Y-2.2323
X2.9528Y-1.9685
X2.9685Y-2.0984
X3.0827Y-3.1772
X3.1063Y-2.3543
X3.3504Y-1.9213
X3.4449Y-2.4606
X3.4488Y-2.5118
X3.4488Y-2.5118
X3.4488Y-2.5118
X3.5315Y-2.4724
X3.5906Y-2.374
X3.5984Y-2.0157
X3.6929Y-2.8031
X3.7795Y-2.2559
X3.8031Y-2.3465
X4.0315Y-1.9055
X4.0669Y-3.2874
X4.1535Y-2.9764
X4.1614Y-2.2992
T2
X2.5197Y-2.4213
X2.5197Y-2.5197
X3.4843Y-1.7323
X3.5827Y-1.7323
X4.4882Y-2.4213
X4.4882Y-2.5197
T3
X2.5197Y-1.7323
X2.5197Y-3.2677
X4.4882Y-1.7323
X4.4882Y-3.2677
T0
M30
